<?xml version="1.0" encoding="UTF-8"?>
<svg id="Layer_2" data-name="Layer 2" xmlns="http://www.w3.org/2000/svg" viewBox="0 0 399.77 85.37">
  <defs>
    <style>
      .cls-1, .cls-2 {
        stroke-width: 0px;
      }

      .cls-2 {
        fill: #d82f23;
      }
    </style>
  </defs>
  <g id="Layer_1-2" data-name="Layer 1">
    <g>
      <path class="cls-1" d="m42.68,0C19.13,0,0,19.13,0,42.68s19.13,42.68,42.68,42.68,42.68-19.13,42.68-42.68S66.24,0,42.68,0Zm0,81.09c-21.2,0-38.41-17.25-38.41-38.41S21.48,4.28,42.68,4.28s38.41,17.25,38.41,38.41-17.21,38.41-38.41,38.41Z"/>
      <path class="cls-1" d="m57.92,15.33c-.14-.09-.33-.14-.52-.14-.56,0-.99.42-.99.99v13.35c0,.47-.38.85-.85.85h-25.86c-.47,0-.8-.38-.85-.85v-13.35c0-.19-.05-.33-.14-.52-.28-.47-.89-.61-1.36-.33-9.54,5.88-15.33,16.08-15.33,27.36s5.78,21.48,15.42,27.36c.14.09.33.14.52.14.56,0,.99-.42.99-.99v-13.35c0-.47.38-.8.85-.85h25.86c.47,0,.85.38.85.85v13.35c0,.19.05.33.14.52.28.47.89.61,1.36.33,9.64-5.88,15.42-16.08,15.42-27.36s-5.88-21.48-15.51-27.36h0ZM23.97,59.42l.14,1.6-1.03-1.27c-7.94-10.01-7.94-24.16,0-34.18l.89-1.13.14-.14-.14,1.65c-.14,1.32-.19,2.68-.19,4.04v25.34c0,1.36.09,2.73.19,4.09Zm32.44-10.34c0,.47-.38.85-.85.85h-25.86c-.47,0-.8-.38-.85-.85v-12.79c0-.47.38-.85.85-.85h25.86c.47,0,.85.38.85.85v12.79Zm5.83,10.67l-1.03,1.27.14-1.6c.14-1.32.19-2.68.19-4.04v-25.39c0-1.36-.05-2.73-.19-4.04l-.05-.71-.05-.75v-.19l.99,1.27c3.85,4.79,5.97,10.91,5.97,17.06s-2.12,12.32-5.97,17.11Z"/>
      <path class="cls-2" d="m149.77,41.93c-.24-.09-.52-.19-.52-.47,0-.19.09-.33.28-.42.33-.14,8.46-3.06,8.46-12.65,0-10.67-7.19-17.02-19.32-17.02h-29.38v62.71h32.06c9.35,0,19.41-6.63,19.41-17.3s-7.71-13.77-11-14.86h0Zm-25.67-17.72c0-.24.19-.42.42-.42h11.66c3.85,0,6.49,2.59,6.49,6.44,0,3.01-2.35,6.25-6.77,6.25h-11.38c-.24,0-.42-.19-.42-.42v-11.85Zm12.08,37.51h-11.66c-.24,0-.42-.19-.42-.42v-12.5c0-.24.19-.42.42-.42h11.38c5.59,0,8.79,2.4,8.79,6.63s-2.96,6.72-8.51,6.72h0Zm123.82-25.39l-2.26-.47c-5.08-1.08-10.01-2.44-10.01-6.82s4.09-6.35,8.13-6.35c4.75,0,9.45,2.12,13.02,5.78l9.31-9.21c-4-4.42-11.09-9.5-22.56-9.5-13.82,0-23.13,7.85-23.13,19.56,0,12.36,9.73,17.02,17.91,18.76l2.21.47c7.94,1.69,11.71,2.96,11.71,7.47,0,4.04-3.62,6.72-8.98,6.72-6.3,0-11.89-2.77-16.12-7.99l-9.54,9.35c5.08,6.02,11.8,11.47,25.86,11.47,11.99,0,24.16-6.96,24.16-20.31-.05-13.68-9.35-16.78-19.7-18.94h0Zm123.87-24.96v22.94c0,.24-.19.42-.42.42h-19.27c-.24,0-.42-.19-.42-.42V11.38h-15.8v62.71h15.8v-24.63c0-.24.19-.42.42-.42h19.27c.24,0,.42.19.42.42v24.63h15.89V11.38h-15.89Zm-67.69,49.88c-7.1,0-14.76-5.92-14.76-18.94,0-11.89,7.19-18.1,14.29-18.1,5.17,0,8.79,2.16,11.66,6.96l12.13-8.04c-6.21-9.12-13.59-13.26-23.88-13.26-20.17,0-29.19,16.31-29.19,32.44,0,19.6,11.94,33.28,29,33.28,12.69,0,18.47-4.65,24.54-13.26l-12.22-8.23c-2.73,4.42-5.69,7.15-11.56,7.15h0ZM196.26,9.78c-17.25,0-28.82,13.21-28.82,32.91s11.56,32.91,28.82,32.91,28.82-13.21,28.82-32.91-11.56-32.91-28.82-32.91h0Zm0,51.48c-8.46,0-13.91-7.29-13.91-18.57s5.45-18.47,13.91-18.47,14.01,7.24,14.01,18.47-5.5,18.57-14.01,18.57Z"/>
    </g>
  </g>
</svg>