<svg id="Deloitte-black" xmlns="http://www.w3.org/2000/svg" width="400" height="74.752" viewBox="0 0 400 74.752">
  <path id="Path_101615" data-name="Path 101615" d="M171.8,34.784a10.584,10.584,0,0,1,21.169,0,10.732,10.732,0,0,1-10.584,10.584A10.587,10.587,0,0,1,171.8,34.784" transform="translate(207.031 29.163)" fill="#86bc25"/>
  <path id="Path_101616" data-name="Path 101616" d="M60.86,35.381c0,12.348-3.087,21.61-9.7,28.225s-15.877,9.923-27.784,9.923H0V.1H24.7C36.384.1,45.2,2.967,51.378,9.141c6.395,5.954,9.482,14.774,9.482,26.24m-20.287.662c0-6.836-1.323-11.687-3.969-14.994C34.179,17.961,29.989,16.2,24.7,16.2H19.4V57.211h4.41c5.954,0,10.143-1.764,13.01-5.292,2.426-3.528,3.749-8.82,3.749-15.877" transform="translate(0 0.121)"/>
  <rect id="Rectangle_4690" data-name="Rectangle 4690" width="18.302" height="73.649" transform="translate(125.028)"/>
  <path id="Path_101617" data-name="Path 101617" d="M121.683,36.325c0,8.82-2.205,15.877-7.056,20.948s-11.466,7.5-19.846,7.5c-8.159,0-14.553-2.426-19.4-7.718S68.1,44.925,68.1,36.325c0-8.82,2.205-15.877,7.056-20.728C80.007,10.526,86.623,8.1,95,8.1a28.143,28.143,0,0,1,13.892,3.308,21.9,21.9,0,0,1,9.261,9.7c2.646,4.631,3.528,9.482,3.528,15.215m-34.62,0c0,4.851.662,8.159,1.764,10.584S91.915,50.437,95,50.437s4.851-1.1,6.174-3.528a27,27,0,0,0,1.764-10.584c0-4.851-.662-8.159-1.764-10.584-1.1-2.205-3.087-3.528-6.174-3.528a6.62,6.62,0,0,0-6.174,3.528c-1.1,2.426-1.764,5.733-1.764,10.584" transform="translate(82.065 9.761)"/>
  <rect id="Rectangle_4691" data-name="Rectangle 4691" width="18.302" height="54.686" transform="translate(211.246 18.743)"/>
  <rect id="Rectangle_4692" data-name="Rectangle 4692" width="18.302" height="12.348" transform="translate(211.246)"/>
  <path id="Path_101618" data-name="Path 101618" d="M137.509,58.452a29.629,29.629,0,0,0,8.82-1.764V70.58a32.258,32.258,0,0,1-7.056,2.205,41.089,41.089,0,0,1-7.938.662c-6.174,0-10.584-1.544-13.451-4.851-2.646-3.087-4.19-7.938-4.19-14.333V31.771H107.3V17.659h6.395V3.987L132.217.9V18.1h11.907V31.992H132.217V53.16c.441,3.749,1.985,5.292,5.292,5.292" transform="translate(129.304 1.085)"/>
  <path id="Path_101619" data-name="Path 101619" d="M156.909,58.452a29.629,29.629,0,0,0,8.82-1.764V70.58a32.258,32.258,0,0,1-7.056,2.205,41.089,41.089,0,0,1-7.938.662c-6.174,0-10.584-1.544-13.451-4.851-2.646-3.087-4.19-7.938-4.19-14.333V31.771H126.7V17.659h6.395V3.767L151.617.9V18.1h11.907V31.992H151.617V53.16c.221,3.749,1.985,5.292,5.292,5.292" transform="translate(152.683 1.085)"/>
  <path id="Path_101620" data-name="Path 101620" d="M191.383,14.495C186.973,10.085,180.8,8.1,172.861,8.1c-8.379,0-14.994,2.426-19.625,7.5S146.4,27.725,146.4,36.986c0,8.82,2.426,15.877,7.277,20.728,5.072,4.851,11.907,7.277,20.728,7.277a53.064,53.064,0,0,0,11.025-.882,32.321,32.321,0,0,0,8.82-3.087L191.6,48.673A34.163,34.163,0,0,1,176.83,51.54a13.523,13.523,0,0,1-8.379-2.426,9.312,9.312,0,0,1-3.087-7.277h32.856v-8.6c-.221-8.159-2.646-14.333-6.836-18.743M165.364,29.71c.221-2.867,1.1-5.292,2.426-6.615A7.337,7.337,0,0,1,173.3,21.11a7.48,7.48,0,0,1,5.733,2.205c1.323,1.544,1.985,3.528,2.205,6.395Z" transform="translate(176.422 9.761)"/>
  <path id="Path_101621" data-name="Path 101621" d="M75.083,14.495C70.453,10.085,64.5,8.1,56.561,8.1c-8.379,0-14.994,2.426-19.625,7.5S30.1,27.725,30.1,36.986c0,8.82,2.426,15.877,7.277,20.728,5.072,4.851,11.907,7.277,20.728,7.277a53.064,53.064,0,0,0,11.025-.882,32.32,32.32,0,0,0,8.82-3.087L75.3,48.453a37.655,37.655,0,0,1-5.954,1.985,37.4,37.4,0,0,1-8.82.882,13.523,13.523,0,0,1-8.379-2.426,9.312,9.312,0,0,1-3.087-7.277H81.919V33.238c-.22-8.159-2.646-14.333-6.836-18.743M48.843,29.71c.221-2.867,1.1-5.292,2.426-6.615a7.337,7.337,0,0,1,5.513-1.985,7.172,7.172,0,0,1,5.733,2.205c1.323,1.544,1.985,3.528,2.205,6.395Z" transform="translate(36.273 9.761)"/>
</svg>
