<svg xmlns="http://www.w3.org/2000/svg" width="400" height="86" fill="none" xmlns:v="https://vecta.io/nano"><g clip-path="url(#A)"><path d="M138.918 50.137h20.28l-1.296 3.491h-24.331V29.988h5.324l.023 20.149zm-22.633-16.675l1.29-3.474H90.624v23.641h25.683l1.296-3.474H95.949V43.46h15.153l1.273-3.452H95.966v-6.547h20.319zm-72.948 0h15.159v20.166h5.33V33.462h13.829l1.296-3.474H44.616l-1.279 3.474zM348.43 53.391h5.324V29.988h-5.324v23.403zM24.772 39.878H8.437c-1.997 0-3.242-1.307-3.242-2.908v-.662c0-1.697 1.369-2.829 3.18-2.829h22.068l1.296-3.474H6.841C2.337 30.027.062 33.003 0 35.997v1.55c.045 3.038 2.365 6.173 6.954 6.173h16.33c1.997 0 3.242 1.307 3.242 2.908v.662c0 1.698-1.375 2.829-3.186 2.829H1.273L0 53.611h24.897c4.493-.051 6.79-3.016 6.83-6.009v-1.55c-.04-3.01-2.371-6.173-6.96-6.173h.006zm368.28 0h-16.33c-1.998 0-3.248-1.307-3.248-2.908v-.662c0-1.697 1.375-2.829 3.185-2.829h22.068l1.296-3.474h-24.897c-4.487.051-6.79 3.016-6.824 6.009v1.55c.045 3.038 2.365 6.173 6.954 6.173h16.302c1.997 0 3.242 1.307 3.242 2.908v.662c0 1.697-1.375 2.829-3.186 2.829h-22.067l-1.296 3.474h24.897c4.487-.051 6.79-3.016 6.824-6.009v-1.55c-.017-3.01-2.332-6.173-6.926-6.173h.006zm-107.701 7.616l-22.357-17.507h-5.33v23.403h5.33V35.85l22.357 17.541h5.324V29.988h-5.324v17.507zm-76.62 5.896h5.72l12.839-23.403h-5.72l-12.839 23.403zm19.419-23.403l12.833 23.403h5.721l-12.85-23.403h-5.704zm-49.55 0h-5.324v23.641h24.331l1.295-3.491H178.6V29.988zm122.956 3.474h15.164v20.166h5.325V33.462h13.835l1.29-3.474h-34.318l-1.296 3.474zm-98.235 20.936a2.45 2.45 0 0 0-1.361.413c-.403.269-.717.652-.902 1.099a2.45 2.45 0 0 0 .531 2.67 2.45 2.45 0 0 0 2.67.531c.448-.185.83-.499 1.1-.902a2.45 2.45 0 0 0 .413-1.361c-.005-.646-.265-1.265-.724-1.72s-1.08-.709-1.727-.708v-.023zm6.485 7.254a2.45 2.45 0 0 0-1.362.413c-.403.269-.717.652-.902 1.1s-.234.941-.139 1.416a2.45 2.45 0 0 0 .672 1.254c.344.342.781.575 1.256.669a2.45 2.45 0 0 0 2.515-1.047c.268-.404.411-.878.41-1.363-.006-.645-.267-1.262-.726-1.716s-1.079-.707-1.724-.706v-.023zm44.82-4.781a2.45 2.45 0 0 0-1.51-2.268 2.45 2.45 0 0 0-2.673.53c-.343.343-.576.78-.671 1.256s-.045.969.141 1.417a2.45 2.45 0 0 0 2.268 1.51c.649 0 1.27-.258 1.729-.716s.716-1.08.716-1.728zm-8.901 5.002a2.45 2.45 0 0 0-1.361.413c-.403.269-.717.652-.902 1.099a2.45 2.45 0 0 0 .531 2.67c.342.343.779.576 1.254.67s.968.046 1.416-.139a2.45 2.45 0 0 0 1.512-2.264c.001-.322-.062-.641-.185-.939a2.44 2.44 0 0 0-1.326-1.327 2.45 2.45 0 0 0-.939-.185zm-8.386 4.855a2.45 2.45 0 0 0-1.361.413c-.403.269-.717.652-.902 1.1a2.45 2.45 0 0 0 .531 2.67 2.45 2.45 0 0 0 2.67.531c.448-.185.83-.499 1.1-.902a2.45 2.45 0 0 0 .413-1.361c0-.65-.259-1.273-.718-1.733a2.45 2.45 0 0 0-1.733-.718zm-16.89 2.45c.001-.485-.141-.959-.41-1.363a2.45 2.45 0 0 0-2.514-1.047 2.45 2.45 0 0 0-1.928 1.924 2.45 2.45 0 0 0 1.04 2.517 2.45 2.45 0 0 0 3.093-.302 2.45 2.45 0 0 0 .719-1.729zm-35.461-32.886a1.24 1.24 0 0 0-.669.271c-.192.154-.333.362-.406.597s-.076.486-.007.722a1.24 1.24 0 0 0 .396.604c.188.158.42.256.664.283s.492-.02.71-.134.398-.289.516-.505a1.25 1.25 0 0 0 .149-.707 1.26 1.26 0 0 0-.135-.468c-.076-.146-.179-.275-.305-.38a1.24 1.24 0 0 0-.913-.283zm5.415 23.816c-.245.021-.479.114-.671.268a1.25 1.25 0 0 0-.409.596c-.074.235-.077.486-.008.723a1.24 1.24 0 0 0 .394.606c.189.159.42.257.665.284s.492-.019.71-.133a1.24 1.24 0 0 0 .517-.505c.119-.216.171-.462.149-.708a1.25 1.25 0 0 0-.439-.844c-.253-.212-.579-.316-.908-.287zm9.705 10.276c-.246.021-.48.115-.672.268a1.25 1.25 0 0 0-.409.596c-.074.235-.077.486-.008.723s.206.447.394.606.42.257.665.284.492-.019.711-.133a1.24 1.24 0 0 0 .516-.505c.119-.216.171-.462.149-.707a1.25 1.25 0 0 0-.439-.844c-.253-.212-.579-.315-.907-.287zm13.065 6.609a1.25 1.25 0 0 0-.67.271c-.191.154-.333.362-.406.597a1.24 1.24 0 0 0-.007.722 1.25 1.25 0 0 0 .396.604c.189.158.42.256.664.283s.492-.02.71-.134.398-.29.516-.505.17-.462.149-.707c-.014-.163-.061-.322-.136-.467a1.26 1.26 0 0 0-.305-.379 1.25 1.25 0 0 0-.911-.285zm14.485 1.669c-.245.021-.479.114-.671.268s-.335.361-.409.596-.078.486-.009.723.206.447.395.606.42.258.664.284.493-.019.711-.133.398-.29.517-.506.17-.462.149-.707a1.25 1.25 0 0 0-.131-.471 1.26 1.26 0 0 0-.303-.384 1.24 1.24 0 0 0-.427-.238c-.157-.05-.322-.069-.486-.055v.017zm15.046-2.048c-.246.021-.479.114-.672.268a1.25 1.25 0 0 0-.409.596c-.074.235-.077.486-.008.723a1.24 1.24 0 0 0 .394.606c.189.159.42.257.665.284s.492-.019.711-.133.398-.29.516-.505.171-.462.149-.707c-.013-.164-.058-.324-.132-.47a1.26 1.26 0 0 0-.303-.383c-.125-.107-.27-.188-.426-.238s-.322-.07-.485-.057v.017zm12.753-6.224c-.245.021-.479.115-.671.268a1.25 1.25 0 0 0-.409.596c-.074.235-.077.486-.008.723a1.24 1.24 0 0 0 .394.606c.189.159.42.257.665.284s.492-.019.711-.133.398-.29.516-.505.171-.462.149-.707c-.013-.163-.059-.322-.134-.468s-.178-.275-.303-.38-.27-.186-.426-.235-.32-.068-.484-.054v.006zm9.688-10.259a1.25 1.25 0 0 0-.468.136c-.145.075-.274.179-.379.304a1.25 1.25 0 0 0-.288.91c.014.163.06.322.136.467s.179.274.304.38c.253.213.58.316.91.288s.634-.187.846-.44.317-.58.288-.91-.187-.634-.44-.847-.58-.316-.909-.288zm4.905-12.069c-.245.021-.479.114-.671.268s-.335.361-.409.596-.077.486-.008.723.206.447.394.606.42.257.665.284a1.24 1.24 0 0 0 1.227-.638c.119-.216.171-.462.149-.708-.029-.329-.187-.633-.439-.846a1.25 1.25 0 0 0-.908-.291v.006zm-80.767-23.635a1.25 1.25 0 0 0 .268.671c.154.192.362.335.597.409s.486.077.723.009.447-.206.605-.394a1.24 1.24 0 0 0 .285-.665 1.25 1.25 0 0 0-.639-1.227c-.216-.118-.462-.17-.707-.149a1.24 1.24 0 0 0-.467.134c-.145.075-.274.178-.379.303a1.23 1.23 0 0 0-.234.426c-.049.156-.067.32-.052.483zm11.023-9.11a1.24 1.24 0 0 0 .669-.271c.191-.154.333-.362.406-.597s.076-.486.007-.722a1.24 1.24 0 0 0-.396-.604c-.188-.158-.42-.256-.664-.283s-.492.02-.71.134-.398.29-.516.505a1.25 1.25 0 0 0-.149.707c.014.163.061.322.136.467a1.26 1.26 0 0 0 .305.379c.126.105.271.184.428.233a1.24 1.24 0 0 0 .484.052zm12.51-6.224a1.24 1.24 0 0 0 1.08-.865c.075-.235.078-.486.009-.723s-.206-.447-.395-.606a1.24 1.24 0 0 0-.664-.284c-.245-.027-.492.019-.711.133a1.25 1.25 0 0 0-.517.505c-.118.216-.17.462-.149.707.014.165.06.325.136.471s.181.276.308.382a1.24 1.24 0 0 0 .92.279h-.017zm-22.905 7.978c.128-.011.25-.06.351-.14s.176-.188.216-.31.043-.254.009-.378-.105-.235-.202-.32a.65.65 0 0 0-.344-.156c-.127-.017-.257.004-.373.06a.65.65 0 0 0-.278.256c-.066.111-.098.238-.092.367.005.088.028.174.066.253a.66.66 0 0 0 .16.208c.066.058.144.102.227.13a.66.66 0 0 0 .26.031zm-8.097 42.058c.174-.016.334-.1.447-.233s.167-.306.153-.48a.66.66 0 0 0-.243-.427c-.133-.105-.301-.155-.47-.139a.64.64 0 0 0-.446.228c-.056.066-.097.142-.123.225s-.034.169-.025.254a.66.66 0 0 0 .238.428c.132.106.3.158.469.143zm8.097 10.751c.129-.012.252-.061.353-.142a.65.65 0 0 0 .214-.314.66.66 0 0 0 .005-.38c-.037-.124-.109-.235-.208-.319s-.221-.136-.35-.15-.259.01-.374.069a.66.66 0 0 0-.353.637c.004.088.026.175.065.255s.092.151.159.21a.66.66 0 0 0 .228.131c.084.028.173.039.261.032v-.028zm12.884 9.212c.174-.016.333-.1.445-.233s.165-.306.149-.48a.64.64 0 0 0-.228-.446.64.64 0 0 0-.225-.122c-.082-.025-.168-.034-.254-.026-.173.014-.334.097-.446.23s-.168.304-.154.478c.005.089.027.175.065.255a.65.65 0 0 0 .159.21.66.66 0 0 0 .228.131c.084.028.173.039.261.032v-.028zm16.409 5.941a.66.66 0 0 0 .355-.14c.102-.081.177-.19.217-.313a.65.65 0 0 0-.2-.702.66.66 0 0 0-.35-.151c-.129-.015-.26.009-.375.069s-.211.152-.274.265-.091.243-.08.373a.66.66 0 0 0 .69.628l.017-.028zm17.27 0c.129-.012.252-.061.353-.142s.175-.191.214-.314.04-.256.004-.38a.65.65 0 0 0-.208-.319c-.099-.084-.22-.136-.349-.15s-.259.01-.374.069-.21.152-.273.265a.65.65 0 0 0-.08.372c.003.087.024.173.061.252a.67.67 0 0 0 .155.208.65.65 0 0 0 .223.132c.082.029.17.041.257.035l.017-.028zm16.409-5.919c.173-.014.334-.097.446-.23s.168-.304.154-.478-.1-.334-.233-.447-.306-.167-.48-.153-.334.1-.445.233-.165.306-.149.48a.64.64 0 0 0 .058.247c.035.078.086.147.148.205s.137.103.217.132.165.042.25.039l.034-.028zm13.059-9.082c.169-.02.322-.105.428-.238s.156-.301.138-.47-.097-.334-.229-.446a.66.66 0 0 0-.478-.154c-.174.016-.334.1-.447.233s-.167.306-.153.48a.66.66 0 0 0 .075.253.65.65 0 0 0 .169.203c.069.056.149.097.234.12s.175.03.263.018zm7.865-10.904c.174-.016.334-.1.445-.233s.165-.306.15-.479a.65.65 0 0 0-.238-.428c-.132-.106-.301-.155-.47-.138s-.333.097-.446.23-.168.304-.153.478a.66.66 0 0 0 .735.572h-.023zm-71.012-51.27c.174-.016.333-.1.445-.233s.165-.306.149-.479a.64.64 0 0 0-.228-.446.64.64 0 0 0-.479-.148c-.173.014-.334.097-.446.23s-.168.304-.154.478.1.334.233.447.306.167.48.153zm16.409-5.941a.66.66 0 0 0 .447-.233c.112-.134.167-.306.153-.48-.011-.129-.061-.252-.142-.353a.66.66 0 0 0-.315-.214c-.123-.039-.256-.04-.38-.004a.66.66 0 0 0-.319.208c-.083.099-.135.221-.15.35s.01.259.069.374a.66.66 0 0 0 .265.273.66.66 0 0 0 .372.08zm-18.536 38.477a2.45 2.45 0 0 0 1.361-.413c.403-.269.717-.652.902-1.099a2.45 2.45 0 0 0-.531-2.67 2.45 2.45 0 0 0-2.67-.531c-.448.185-.83.499-1.099.902s-.413.877-.413 1.361c.006.642.264 1.257.719 1.71s1.071.709 1.714.712l.017.028zm2.67-9.116a2.45 2.45 0 0 0 2.249-1.518 2.45 2.45 0 0 0-.529-2.661c-.341-.342-.775-.576-1.248-.672a2.45 2.45 0 0 0-2.513 1.021c-.272.399-.42.869-.426 1.352 0 .65.259 1.273.718 1.733a2.45 2.45 0 0 0 1.732.718l.017.028zm6.485-7.254c.483-.002.954-.147 1.354-.416a2.45 2.45 0 0 0 1.038-2.507c-.093-.473-.324-.909-.663-1.252a2.45 2.45 0 0 0-2.657-.548 2.45 2.45 0 0 0-1.105.887 2.44 2.44 0 0 0-.428 1.351c-.001.322.061.64.184.938s.302.568.529.796a2.45 2.45 0 0 0 1.731.722l.017.028zm8.193-5.053a2.45 2.45 0 0 0 1.363-.403c.404-.266.721-.646.91-1.091a2.45 2.45 0 0 0-.508-2.672 2.45 2.45 0 0 0-1.246-.682c-.474-.099-.967-.056-1.416.125a2.45 2.45 0 0 0-1.108.89c-.273.399-.422.871-.428 1.355 0 .644.253 1.262.706 1.721a2.45 2.45 0 0 0 1.71.73l.017.028zm9.766-1.448a2.45 2.45 0 0 0 1.362-.413c.403-.269.717-.652.902-1.1a2.45 2.45 0 0 0 .139-1.415 2.44 2.44 0 0 0-.67-1.255 2.45 2.45 0 0 0-2.67-.531c-.448.185-.83.499-1.1.902a2.45 2.45 0 0 0-.413 1.361c.008.642.267 1.255.722 1.708a2.45 2.45 0 0 0 1.712.713l.016.028zm0 55.695a2.45 2.45 0 0 0 2.252-1.524c.183-.448.229-.94.132-1.414a2.45 2.45 0 0 0-1.929-1.916 2.45 2.45 0 0 0-2.51 1.045c-.268.403-.412.876-.412 1.359a2.45 2.45 0 0 0 2.451 2.422l.016.028zm-27.618-53.596c-.38 0-.752.113-1.069.324a1.92 1.92 0 0 0-.708.863c-.146.351-.184.738-.11 1.111s.258.716.527.985.612.452.985.527a1.92 1.92 0 0 0 1.111-.11c.352-.146.652-.392.864-.709s.324-.688.324-1.069c0-.51-.203-1-.564-1.36a1.92 1.92 0 0 0-1.36-.563zm-6.128 10.078a1.92 1.92 0 0 0-1.069.325c-.317.212-.563.512-.709.864s-.183.739-.108 1.112.258.716.528.985a1.92 1.92 0 0 0 .986.525c.374.074.761.035 1.112-.112s.652-.394.862-.711.323-.69.322-1.07c-.002-.509-.205-.997-.566-1.357a1.92 1.92 0 0 0-1.358-.561zm-2.348 11.317a1.92 1.92 0 0 0-1.069.324 1.93 1.93 0 0 0-.818 1.975c.074.373.257.716.527.985a1.92 1.92 0 0 0 2.096.417 1.92 1.92 0 0 0 1.188-1.777 1.94 1.94 0 0 0-.139-.745c-.095-.237-.236-.452-.415-.634s-.392-.326-.627-.424-.488-.149-.743-.149v.028zm17.829-28.943c-.38-.001-.753.111-1.07.322a1.92 1.92 0 0 0-.711.862c-.147.351-.185.738-.112 1.112s.256.717.525.986.612.453.985.528.761.037 1.113-.108a1.93 1.93 0 0 0 .864-.709 1.92 1.92 0 0 0 .325-1.069 1.95 1.95 0 0 0-.138-.744 1.92 1.92 0 0 0-.414-.633c-.178-.182-.391-.326-.626-.425a1.92 1.92 0 0 0-.741-.151v.028zm12.177-4.114c-.38 0-.752.113-1.069.324a1.92 1.92 0 0 0-.708.863c-.146.352-.184.738-.11 1.112s.258.716.527.985.612.452.985.527a1.92 1.92 0 0 0 1.111-.11c.352-.146.652-.392.864-.709s.324-.688.324-1.069c0-.51-.203-1-.564-1.36a1.92 1.92 0 0 0-1.36-.563zm6.072-3.395c-.247 0-.487.073-.692.21a1.25 1.25 0 0 0-.459.559c-.094.227-.118.478-.07.719s.166.463.34.637.396.293.638.341.491.023.719-.071a1.25 1.25 0 0 0 .768-1.15 1.24 1.24 0 0 0-.093-.477 1.23 1.23 0 0 0-.27-.405c-.115-.116-.253-.207-.404-.27s-.314-.094-.477-.093zm37.345 18.542c-.246-.021-.492.03-.708.149a1.24 1.24 0 0 0-.638 1.227 1.25 1.25 0 0 0 .284.665 1.24 1.24 0 0 0 .606.395c.236.069.488.066.723-.009s.442-.217.596-.409.247-.426.268-.671a1.23 1.23 0 0 0-.042-.49 1.24 1.24 0 0 0-.23-.435c-.105-.128-.235-.234-.381-.311s-.308-.124-.473-.138l-.005.028zm-8.55-8.923c.021-.244-.031-.489-.149-.704a1.24 1.24 0 0 0-.513-.505 1.25 1.25 0 0 0-.708-.136c-.243.025-.474.122-.663.279s-.328.365-.399.599-.071.485 0 .72.21.443.399.6.42.253.664.279c.164.017.33.001.489-.046s.305-.127.433-.232.232-.235.309-.382a1.24 1.24 0 0 0 .138-.472zM244.045 7.96c.021-.245-.031-.492-.149-.707a1.25 1.25 0 0 0-.517-.505c-.219-.114-.466-.16-.711-.133s-.476.126-.664.284-.326.369-.395.606-.066.488.009.723a1.24 1.24 0 0 0 .409.596c.192.154.426.247.671.268a1.24 1.24 0 0 0 .909-.285 1.24 1.24 0 0 0 .303-.379 1.25 1.25 0 0 0 .135-.467zm22.288 8.487a.66.66 0 0 0-.353-.637c-.115-.059-.245-.084-.374-.069s-.251.067-.35.15-.171.194-.208.319a.66.66 0 0 0 .005.38.65.65 0 0 0 .214.314c.101.081.224.131.353.143a.66.66 0 0 0 .256-.028c.082-.026.159-.068.225-.124s.121-.124.161-.201a.65.65 0 0 0 .071-.247zm-12.884-9.189c.014-.173-.041-.345-.154-.478s-.273-.215-.446-.23a.64.64 0 0 0-.479.148.64.64 0 0 0-.228.446c-.016.173.038.346.149.479s.271.218.445.233.346-.041.48-.153.217-.273.233-.447zM237.04 1.317a.66.66 0 0 0-.146-.476c-.109-.133-.266-.219-.437-.237a.66.66 0 0 0-.713.6c-.014.174.041.346.153.48a.66.66 0 0 0 .447.233c.173.014.345-.041.477-.154a.66.66 0 0 0 .23-.446h-.011zm17.603 27.483c0-.485-.144-.959-.414-1.362s-.652-.717-1.1-.902a2.45 2.45 0 0 0-2.671.534c-.342.343-.575.78-.669 1.256s-.045.968.142 1.416.501.83.905 1.098.877.411 1.362.41a2.44 2.44 0 0 0 .94-.183c.299-.122.57-.303.798-.531s.409-.498.532-.796.187-.617.186-.94h-.011zm-6.473-7.26c0-.485-.144-.959-.414-1.362s-.652-.717-1.1-.902a2.45 2.45 0 0 0-2.671.534c-.342.343-.575.78-.669 1.256s-.045.968.142 1.416a2.45 2.45 0 0 0 2.267 1.508c.322 0 .64-.063.937-.187s.567-.304.794-.531.407-.498.529-.795a2.45 2.45 0 0 0 .185-.937zm-8.194-5.053c0-.485-.144-.959-.413-1.362s-.653-.717-1.101-.902a2.45 2.45 0 0 0-2.67.534 2.45 2.45 0 0 0-.67 1.256 2.46 2.46 0 0 0 .142 1.416c.187.448.501.83.905 1.098a2.45 2.45 0 0 0 1.363.41c.648 0 1.27-.258 1.728-.716a2.44 2.44 0 0 0 .716-1.728v-.006zm13.467 5.053c0 .381.113.753.324 1.069s.512.563.864.709a1.92 1.92 0 0 0 1.111.11c.373-.074.716-.258.985-.527s.453-.612.527-.985.036-.76-.11-1.112a1.92 1.92 0 0 0-.708-.863c-.317-.211-.689-.324-1.069-.324a1.92 1.92 0 0 0-1.36.564c-.361.361-.564.85-.564 1.36zm.142 42.573a1.93 1.93 0 0 0 1.188 1.778c.352.145.739.183 1.113.108s.716-.258.985-.528.451-.613.525-.987.035-.761-.112-1.112a1.92 1.92 0 0 0-.711-.862c-.317-.211-.69-.323-1.07-.322-.253.001-.503.051-.736.149s-.445.24-.623.419-.319.392-.415.625a1.92 1.92 0 0 0-.144.737v-.006zm-9.484 7.616c0 .38.113.752.324 1.069s.512.563.864.709a1.92 1.92 0 0 0 2.096-.417c.269-.269.453-.612.527-.985s.036-.76-.11-1.112a1.92 1.92 0 0 0-.708-.863c-.317-.211-.689-.324-1.069-.324a1.92 1.92 0 0 0-.736.146 1.91 1.91 0 0 0-1.041 1.041 1.92 1.92 0 0 0-.147.736zm-11.916 3.763c0 .38.113.752.324 1.069s.512.563.863.709.739.184 1.112.109.716-.258.985-.527a1.92 1.92 0 0 0 .526-.985c.075-.373.037-.76-.109-1.112s-.392-.652-.709-.863a1.92 1.92 0 0 0-1.068-.324c-.511 0-1 .203-1.361.564s-.563.85-.563 1.36zm-12.392.147c0 .38.113.752.324 1.069s.512.563.864.709a1.92 1.92 0 0 0 1.111.109c.373-.074.716-.257.985-.526a1.93 1.93 0 0 0 .527-.985c.074-.373.036-.76-.11-1.111a1.92 1.92 0 0 0-.708-.863c-.317-.211-.689-.324-1.069-.324a1.92 1.92 0 0 0-.736.146c-.234.097-.446.238-.625.417a1.94 1.94 0 0 0-.417.624c-.096.233-.146.484-.146.736zm-12.086-3.65a1.92 1.92 0 0 0 .321 1.07c.211.317.511.565.862.711s.739.185 1.112.112.717-.256.987-.525a1.93 1.93 0 0 0 .528-.985c.075-.373.037-.76-.109-1.112s-.392-.653-.708-.864-.689-.325-1.069-.325c-.51 0-.998.202-1.359.562s-.564.847-.565 1.357zm-9.467-7.922a1.92 1.92 0 0 0 .325 1.069c.212.316.512.563.864.708s.739.183 1.112.109a1.92 1.92 0 0 0 .985-.528c.269-.27.452-.613.526-.987s.034-.761-.112-1.112a1.93 1.93 0 0 0-.711-.862c-.317-.211-.69-.323-1.071-.322-.505.002-.989.202-1.348.557s-.564.838-.57 1.344v.023zm45.833-50.076a1.93 1.93 0 0 0 .324 1.069c.212.316.513.563.865.708s.739.183 1.112.109.716-.258.985-.528a1.92 1.92 0 0 0 .525-.986c.074-.374.035-.761-.112-1.112s-.393-.652-.711-.862a1.92 1.92 0 0 0-1.07-.321 1.92 1.92 0 0 0-1.336.564c-.354.355-.555.836-.559 1.338l-.023.023zM231.89 9.889a1.92 1.92 0 0 0 .325 1.069c.211.316.512.563.863.709s.738.184 1.112.11.716-.258.985-.527a1.92 1.92 0 0 0 .526-.985 1.93 1.93 0 0 0-.818-1.975 1.92 1.92 0 0 0-1.069-.324c-.502.006-.982.208-1.338.563s-.557.835-.563 1.338l-.023.023zm41.94 21.27a.66.66 0 0 0 .431-.238c.107-.132.159-.301.144-.47a.66.66 0 0 0-.223-.439c-.128-.112-.295-.169-.465-.16-.088.005-.174.027-.253.066a.65.65 0 0 0-.337.387c-.027.084-.037.172-.03.26a.67.67 0 0 0 .24.453.67.67 0 0 0 .232.121.66.66 0 0 0 .261.021z" fill="#03428e"/></g><defs><clipPath id="A"><path fill="#fff" transform="translate(0 .605)" d="M0 0h400v84.456H0z"/></clipPath></defs></svg>